# xmcd
#
# Track frame offsets:
#	150
#	11424
#	25231
#	35008
#	52684
#	63633
#	79131
#	91804
#	105640
#	121197
#	136021
#	150994
#	166063
#	173773
#	187574
#	197725
#	208960
#	220193
#	230656
#	240392
#	259189
#	274769
#
# Disc length: 3822 seconds
#
# Revision: 1
# Processed by: cddbd v1.5.2PL0 Copyright (c) Steve Scherf et al.
# Submitted via: audiograbber 1.83.01
#
DISCID=180eec16
DTITLE=Greenhorns - Zlata era 1969-76
DYEAR=1900
DGENRE=Country
TTITLE0=Blues Folsomske veznice
TTITLE1=A slunce pali jen
TTITLE2=Honzuv song
TTITLE3=Co se bude dit
TTITLE4=Casey Jones
TTITLE5=El Paso
TTITLE6=Blues hvizdaveho vlaku
TTITLE7=Blizko Little Big Hornu
TTITLE8=Posledni sklenka
TTITLE9=Odvolejte kneze
TTITLE10=Divnej smich
TTITLE11=Zluta kytka
TTITLE12=Vlak v 0.5
TTITLE13=Na vanoce rano
TTITLE14=Hej,Joe
TTITLE15=Sest bilych koni
TTITLE16=Nevahej
TTITLE17=Kdyz nas tata hral
TTITLE18=Sest dni na silnici
TTITLE19=Oranzovy expres
TTITLE20=Cervena reka
TTITLE21=Hromskej den
EXTD=
EXTT0=
EXTT1=
EXTT2=
EXTT3=
EXTT4=
EXTT5=
EXTT6=
EXTT7=
EXTT8=
EXTT9=
EXTT10=
EXTT11=
EXTT12=
EXTT13=
EXTT14=
EXTT15=
EXTT16=
EXTT17=
EXTT18=
EXTT19=
EXTT20=
EXTT21=
PLAYORDER=
